<svg xmlns="http://www.w3.org/2000/svg" viewBox="0 0 512 512" role="img" aria-labelledby="title desc">
  <title id="title">PDFMech logo icon</title>
  <desc id="desc">Mechanic hammer and PDF document logo for PDFMech.</desc>
  <defs>
    <linearGradient id="ink" x1="105" y1="62" x2="409" y2="444" gradientUnits="userSpaceOnUse">
      <stop stop-color="#10283a"/>
      <stop offset="1" stop-color="#071826"/>
    </linearGradient>
    <linearGradient id="red" x1="152" y1="170" x2="390" y2="365" gradientUnits="userSpaceOnUse">
      <stop stop-color="#f33a2f"/>
      <stop offset="1" stop-color="#bd1713"/>
    </linearGradient>
    <linearGradient id="steel" x1="206" y1="114" x2="334" y2="246" gradientUnits="userSpaceOnUse">
      <stop stop-color="#c9d0d6"/>
      <stop offset="0.48" stop-color="#526173"/>
      <stop offset="1" stop-color="#172636"/>
    </linearGradient>
    <linearGradient id="skin" x1="96" y1="176" x2="260" y2="302" gradientUnits="userSpaceOnUse">
      <stop stop-color="#ffd1a5"/>
      <stop offset="1" stop-color="#f39a63"/>
    </linearGradient>
    <filter id="shadow" x="-18%" y="-18%" width="136%" height="140%">
      <feDropShadow dx="0" dy="14" stdDeviation="14" flood-color="#071826" flood-opacity="0.22"/>
    </filter>
  </defs>
  <rect x="34" y="34" width="444" height="444" rx="82" fill="#fff"/>
  <path d="M91 251a179 179 0 0 1 329 79" fill="none" stroke="url(#ink)" stroke-width="18" stroke-linecap="round"/>
  <path d="M105 244a154 154 0 0 1 291 66" fill="none" stroke="#d92720" stroke-width="9" stroke-linecap="round"/>
  <g filter="url(#shadow)">
    <path d="M282 121c30-4 62 15 73 45l-19 17-29-34c-12-14-28-23-45-27l20-1z" fill="url(#steel)" stroke="#071826" stroke-width="8" stroke-linejoin="round"/>
    <path d="M238 179 126 260l-24-31 113-82z" fill="url(#ink)" stroke="#071826" stroke-width="8" stroke-linejoin="round"/>
    <path d="M97 236c17-16 39-25 61-24l38-23c26 1 43 19 39 39l-48 29c-24 21-54 29-88 24-20-3-23-27-2-45z" fill="url(#skin)" stroke="#071826" stroke-width="8" stroke-linejoin="round"/>
    <path d="M137 262c19-2 34-9 48-22" fill="none" stroke="#c86c43" stroke-width="7" stroke-linecap="round"/>
    <path d="M116 298c33 30 77 48 129 48 53 0 98-19 132-51l13 94H104z" fill="url(#ink)"/>
    <path d="M239 210c22-13 52-6 69 16 15 20 15 49-1 70h-88c-16-31-9-68 20-86z" fill="url(#ink)"/>
    <path d="M284 190c41 4 69 34 67 71-33-19-70-28-114-23 3-31 21-51 47-48z" fill="url(#ink)" stroke="#071826" stroke-width="8"/>
    <path d="M243 253c-12 9-13 29 1 43" fill="none" stroke="#f5a877" stroke-width="10" stroke-linecap="round"/>
    <path d="M316 244h82l42 43v104H285V276c0-18 13-32 31-32z" fill="#fff" stroke="#071826" stroke-width="10" stroke-linejoin="round"/>
    <path d="M398 244v43h42" fill="#eef0f2" stroke="#071826" stroke-width="10" stroke-linejoin="round"/>
    <rect x="309" y="299" width="91" height="43" rx="9" fill="url(#red)"/>
    <text x="354" y="331" text-anchor="middle" font-family="Arial, Helvetica, sans-serif" font-size="31" font-weight="900" fill="#fff">PDF</text>
    <rect x="319" y="357" width="76" height="8" rx="4" fill="#b9bec4"/>
    <rect x="319" y="374" width="55" height="8" rx="4" fill="#c9cdd2"/>
  </g>
  <path d="M88 407h337" stroke="#071826" stroke-width="12" stroke-linecap="round"/>
</svg>
